<svg width="14" height="14" viewBox="0 0 14 14" fill="none" xmlns="http://www.w3.org/2000/svg">
<path d="M13.8708 13.2528L10.0018 9.38389C10.8549 8.38863 11.3498 7.10081 11.3498 5.68721C11.3498 2.54557 8.80342 0 5.6626 0C2.52179 0 0 2.54639 0 5.68721C0 8.82802 2.54612 11.3744 5.6626 11.3744C7.07566 11.3744 8.36539 10.856 9.35929 10.0032L13.2282 13.8721C13.3376 13.9555 13.4497 13.9993 13.5618 13.9993C13.6739 13.9993 13.7857 13.9566 13.871 13.8711C14.043 13.7012 14.043 13.4224 13.8708 13.2528ZM5.68721 10.4995C3.0104 10.4995 0.87496 8.33941 0.87496 5.68721C0.87496 3.035 3.0104 0.874955 5.68721 0.874955C8.36403 0.874955 10.4995 3.01039 10.4995 5.68721C10.4995 8.36402 8.33942 10.4995 5.68721 10.4995Z" fill="#7D3CE9"/>
</svg>
